# xmcd
#
# Track frame offsets:
#	150
#	9727
#	26737
#	45360
#	66261
#	79381
#	89436
#	102862
#	114324
#	131184
#	141413
#	160210
#	177781
#	190981
#
# Disc length: 2814 seconds
#
# Revision: 0
# Processed by: cddbd v1.5.1PL0 Copyright (c) Steve Scherf et al.
# Submitted via: dBpowerAMP V4.0
#
DISCID=c00afc0e
DTITLE=Ryan Adams - Jacksonville City Lights
DYEAR=2005
DGENRE=Alt Country
TTITLE0=A Kiss Before I Go
TTITLE1=The End
TTITLE2=Hard Way To Fall
TTITLE3=Dear John
TTITLE4=The Hardest Part
TTITLE5=Games
TTITLE6=Silver Bullets
TTITLE7=Peaceful Valley
TTITLE8=September
TTITLE9=My Heart Is Broken
TTITLE10=Trains
TTITLE11=Pa
TTITLE12=Withering Heights
TTITLE13=Don't Fail Me Now
EXTD=
EXTT0=
EXTT1=
EXTT2=
EXTT3=
EXTT4=
EXTT5=
EXTT6=
EXTT7=
EXTT8=
EXTT9=
EXTT10=
EXTT11=
EXTT12=
EXTT13=
PLAYORDER=
